# xmcd
#
# Track frame offsets: 
#        150
#        11658
#        23863
#        35938
#        47980
#        59577
#        70798
#        83398
#        96698
#        109902
#        121311
#        134371
#        146158
#        156835
#        168062
#        182316
#        193623
#        206830
#        218948
#        231207
#
# Disc length: 3217 seconds
#
# Revision: 0
# Processed by: cddbd v1.5.2PL0 Copyright (c) Steve Scherf et al.
# Submitted via: ExactAudioCopy v1.0b3
#
DISCID=270c8f14
DTITLE=John Lee Hooker - Anthology [CD1]
DYEAR=2016
DGENRE=Blues
TTITLE0=Boom Boom
TTITLE1=Hobo Blues
TTITLE2=Crawlin' King Snake
TTITLE3=I'm in the Mood
TTITLE4=Little Wheel
TTITLE5=I Love You Honey
TTITLE6=I'm So Excited
TTITLE7=Time is Marching
TTITLE8=Baby Lee
TTITLE9=Baby I'm Gonna Miss You
TTITLE10=Every Night
TTITLE11=Hug and Squeeze Me
TTITLE12=Maudie
TTITLE13=A New Leaf
TTITLE14=Baby You Ain't No Good
TTITLE15=Hard Headed Woman
TTITLE16=I'm Goin' Upstairs
TTITLE17=Walking the Boogie
TTITLE18=No More Doggin'
TTITLE19=How Long Blues
EXTD=
EXTT0=
EXTT1=
EXTT2=
EXTT3=
EXTT4=
EXTT5=
EXTT6=
EXTT7=
EXTT8=
EXTT9=
EXTT10=
EXTT11=
EXTT12=
EXTT13=
EXTT14=
EXTT15=
EXTT16=
EXTT17=
EXTT18=
EXTT19=
PLAYORDER=
